<?xml version="1.0" encoding="utf-8"?>
<!-- Generator: Adobe Illustrator 16.0.0, SVG Export Plug-In . SVG Version: 6.00 Build 0)  -->
<!DOCTYPE svg PUBLIC "-//W3C//DTD SVG 1.1//EN" "http://www.w3.org/Graphics/SVG/1.1/DTD/svg11.dtd">
<svg version="1.1" xmlns="http://www.w3.org/2000/svg" xmlns:xlink="http://www.w3.org/1999/xlink" x="0px" y="0px" width="256px"
	 height="256px" viewBox="0 0 256 256" enable-background="new 0 0 256 256" xml:space="preserve">
<g id="Layer_1">
	<linearGradient id="SVGID_1_" gradientUnits="userSpaceOnUse" x1="67.7832" y1="24.1548" x2="189.5303" y2="235.0269">
		<stop  offset="0" style="stop-color:#FFFFFF"/>
		<stop  offset="0.234" style="stop-color:#006A03;stop-opacity:0.8"/>
	</linearGradient>
	<path fill="url(#SVGID_1_)" stroke="#333333" stroke-miterlimit="10" d="M89.6,179.5c-7.6,0-15.1-7.1-15.1-14.5v-6.7
		c0-7.4,7.5-11.8,15.1-11.8H246c1,0,2-0.7,2.9-0.5c0.7-5.3,1.1-11,1.1-16.5c0-30.1-11-57.9-29.2-79.1
		c-22.3-25.9-55.3-42.5-92.2-42.5C61.4,7.9,7.1,62.2,7.1,129.2c0,67,54.4,121.8,121.5,121.8c49.5,0,92.1-28.5,111-71.5H89.6z
		 M72.2,104c0-17.8,25.4-32.4,56.7-32.4c31.3,0,56.7,14.7,56.7,32.5c0,0,0,0.4,0,0.4H72.2C72.2,104.5,72.2,104.1,72.2,104z"/>
</g>
<g id="Layer_2">
	<g>
		<path opacity="0.9" fill="#333333" d="M187.9,43.4l4.5-8.9c-0.8,0-1.3-0.1-1.7-0.3c-0.4-0.3-0.7-0.8-1.1-1.6
			c-0.5-1.3-0.6-2.4-0.2-3.2c0.4-0.8,1.3-1.5,2.8-2.1l7.2-2.8c1.5-0.6,2.6-0.7,3.5-0.4c0.8,0.3,1.5,1.1,2,2.4c0.4,1,0.5,1.7,0.3,2.3
			c-0.2,0.6-0.8,1.2-1.8,1.9c-0.9,0.6-1.7,1.3-2.3,2.1c-0.6,0.8-1.2,1.9-1.9,3.4l-1.4,3.3l12.9,7.3l0.8-0.3c1.3-0.5,2.3-0.6,3.2-0.2
			s1.5,1.1,2,2.3c0.5,1.3,0.6,2.3,0.1,3.2c-0.4,0.8-1.4,1.5-2.9,2.1l-8,3.2c-1.4,0.6-2.5,0.7-3.4,0.5s-1.4-0.9-1.9-1.9
			c-0.3-0.8-0.4-1.5-0.2-2.1c0.2-0.6,0.6-1.3,1.4-1.9l-7.9-4.4l-2.6,5.3L194,59c0.3,0.8,0.4,1.5,0.2,1.9c-0.2,0.4-0.6,0.8-1.4,1.1
			l-5.9,2.3c-1.4,0.6-2.6,0.7-3.4,0.4c-0.8-0.3-1.5-1.1-2-2.4c-0.5-1.2-0.5-2.1-0.2-3s1.1-1.5,2.3-1.9l0.5-0.2L173,28.7l-0.5,0.2
			c-1.2,0.5-2.2,0.5-3,0.1c-0.9-0.4-1.5-1.2-2-2.3c-0.5-1.3-0.5-2.3-0.1-3.1c0.4-0.8,1.3-1.5,2.8-2.1l5.9-2.3
			c0.7-0.3,1.3-0.3,1.7-0.1c0.4,0.2,0.8,0.7,1.1,1.5L187.9,43.4z"/>
		<path opacity="0.9" fill="#333333" d="M228.1,12.3c5.3-2.1,10.2-2.3,14.6-0.6c4.5,1.7,7.6,4.8,9.4,9.5c1.8,4.7,1.7,9.1-0.4,13.4
			c-2.1,4.3-5.8,7.4-11.1,9.5c-5.3,2.1-10.1,2.3-14.6,0.6c-4.5-1.7-7.6-4.8-9.5-9.5c-1.8-4.6-1.7-9.1,0.5-13.4
			C219.1,17.5,222.8,14.4,228.1,12.3z M230.8,19.2c-2.6,1-4.3,2.7-5.3,5c-1,2.3-1,4.8,0,7.4c1,2.6,2.7,4.5,5,5.5
			c2.3,1.1,4.8,1.1,7.3,0.1c2.6-1,4.3-2.7,5.3-5.1c1-2.4,1-4.9-0.1-7.5c-1-2.6-2.7-4.4-5-5.4S233.4,18.2,230.8,19.2z"/>
	</g>
	<g>
	</g>
	<g>
	</g>
	<g>
	</g>
	<g>
	</g>
	<g>
	</g>
	<g>
	</g>
	<g>
	</g>
	<g>
	</g>
	<g>
	</g>
	<g>
	</g>
	<g>
	</g>
	<g>
	</g>
	<g>
	</g>
	<g>
	</g>
	<g>
	</g>
</g>
</svg>
