<?xml version="1.0" standalone="no"?>
<!DOCTYPE svg PUBLIC "-//W3C//DTD SVG 20010904//EN"
 "http://www.w3.org/TR/2001/REC-SVG-20010904/DTD/svg10.dtd">
<svg version="1.0" xmlns="http://www.w3.org/2000/svg"
 width="256.000000pt" height="256.000000pt" viewBox="0 0 256.000000 256.000000"
 preserveAspectRatio="xMidYMid meet">
<metadata>
Created by potrace 1.11, written by Peter Selinger 2001-2013
</metadata>
<g transform="translate(0.000000,256.000000) scale(0.100000,-0.100000)"
fill="#000000" stroke="none">
<path d="M1188 2485 c-2 -2 -31 -5 -64 -9 -179 -19 -418 -116 -574 -233 -123
-93 -262 -252 -334 -384 -184 -336 -201 -750 -45 -1087 162 -350 452 -598 806
-688 125 -32 185 -38 333 -37 108 1 164 8 300 39 102 22 284 108 389 182 80
57 213 187 268 262 44 60 117 187 128 219 l6 21 -775 2 c-768 3 -775 3 -803
24 -53 39 -73 81 -73 150 0 59 3 66 34 97 18 19 48 37 66 41 18 3 391 6 829 6
451 0 802 4 810 9 18 12 20 265 2 361 -54 296 -196 548 -409 729 -55 47 -60
55 -46 66 12 8 15 20 10 38 -7 30 -25 33 -74 16 -27 -9 -38 -7 -94 25 -117 65
-294 125 -418 142 -46 6 -267 13 -272 9z m323 -675 c187 -50 309 -144 334
-257 l7 -33 -561 0 c-557 0 -561 0 -561 20 0 83 122 201 255 245 60 20 119 35
167 41 24 4 44 8 46 9 2 2 54 2 116 0 76 -2 141 -10 197 -25z"/>
<path d="M2308 2446 c-55 -15 -112 -56 -133 -96 -63 -122 27 -260 161 -247
157 16 246 156 174 273 -41 65 -118 92 -202 70z m99 -99 c51 -46 32 -136 -32
-157 -87 -29 -161 72 -104 144 21 27 73 47 99 38 8 -3 25 -14 37 -25z"/>
</g>
</svg>
